<svg xmlns="http://www.w3.org/2000/svg" viewBox="0 0 626.24 560.3"><defs><style>.cls-1{fill:#fff;}.cls-2{fill:none;stroke:#fff;stroke-miterlimit:10;stroke-width:5px;}</style></defs><g id="Layer_2" data-name="Layer 2"><g id="Layer_1-2" data-name="Layer 1"><path class="cls-1" d="M313.12,211.32a352.52,352.52,0,0,1,147.55,32.36A357.09,357.09,0,0,1,615.52,382.59v-4.54a358.87,358.87,0,0,1-88,98.45A351.63,351.63,0,0,1,111.69,486a357,357,0,0,1-92-93.89q-4.62-6.91-8.93-14v4.54a359.39,359.39,0,0,1,87.62-98.14,350.78,350.78,0,0,1,214.78-73.13c5.79,0,5.8-9,0-9a360.8,360.8,0,0,0-264,114.79A370.23,370.23,0,0,0,3,378.05a4.5,4.5,0,0,0,0,4.54A369.43,369.43,0,0,0,93.4,483.66a360.28,360.28,0,0,0,131.27,63.73,364.36,364.36,0,0,0,158,4.2,359.17,359.17,0,0,0,136.8-58.13A368.69,368.69,0,0,0,614.07,397c3.19-4.74,6.25-9.56,9.22-14.45a4.5,4.5,0,0,0,0-4.54A369.53,369.53,0,0,0,532.84,277a360.25,360.25,0,0,0-131.28-63.73,364.69,364.69,0,0,0-88.44-10.94c-5.79,0-5.8,9,0,9Z"/><path class="cls-1" d="M313.12,200.32a363,363,0,0,0-263,112.83A371.94,371.94,0,0,0,.61,378.05a4.54,4.54,0,0,0,0,4.54A371,371,0,0,0,97.47,489.25a361.84,361.84,0,0,0,131.67,61.29,366.27,366.27,0,0,0,150.78,3.62A361.28,361.28,0,0,0,514.51,499.3,370.25,370.25,0,0,0,616,397.77q5-7.47,9.62-15.18a4.5,4.5,0,0,0,0-4.54,371.16,371.16,0,0,0-96.49-106.39A362,362,0,0,0,398,210.32a367.05,367.05,0,0,0-84.87-10c-5.79,0-5.8,9,0,9a354.16,354.16,0,0,1,141.77,29.55,358.62,358.62,0,0,1,163,143.72v-4.54a360,360,0,0,1-94,103.7,353.6,353.6,0,0,1-407.23,10,358.85,358.85,0,0,1-98.88-98.93q-4.86-7.28-9.37-14.8v4.54a360,360,0,0,1,94-103.69,352.71,352.71,0,0,1,210.75-69.58C318.91,209.32,318.92,200.32,313.12,200.32Z"/><path class="cls-2" d="M313.12,269.49A110.84,110.84,0,1,1,234.75,302a110.12,110.12,0,0,1,78.37-32.46m0-2A112.84,112.84,0,1,0,426,380.32,112.84,112.84,0,0,0,313.12,267.49Z"/><circle class="cls-1" cx="313.12" cy="380.32" r="42.58"/><path class="cls-1" d="M124.19,185.4l-9.59-9.59-23-23L63.85,125.07l-24-24C36,97.2,32.18,93.2,28.19,89.41L28,89.23a4.57,4.57,0,0,0-6.36,0h0a4.58,4.58,0,0,0,0,6.37l9.62,9.62,22.91,22.91L82,155.92l24,24c3.88,3.88,7.68,7.87,11.66,11.66l.17.17a4.57,4.57,0,0,0,6.36,0h0a4.5,4.5,0,0,0-6.36-6.37h6.36l-9.62-9.62L91.66,152.87,63.87,125.08l-24-24C36,97.19,32.22,93.12,28.19,89.4L28,89.23V95.6H21.66l9.59,9.59,23,23L82,155.93l24,24c3.89,3.89,7.71,7.89,11.69,11.68l.17.18a4.5,4.5,0,0,0,6.36-6.37Z"/><path class="cls-1" d="M317.43,140.5V21.26c0-5.5.13-11,0-16.52a1.92,1.92,0,0,1,0-.24,4.57,4.57,0,0,0-4.5-4.5h0a4.56,4.56,0,0,0-4.5,4.5V123.74c0,5.5-.14,11,0,16.52v.24a4.57,4.57,0,0,0,4.5,4.5h0a4.5,4.5,0,0,0,0-9h0l4.5,4.5V21.26c0-5.49.22-11,0-16.52a1.92,1.92,0,0,1,0-.24L312.93,9h0l-4.5-4.5V123.74c0,5.5-.14,11,0,16.52v.24a4.5,4.5,0,0,0,9,0Z"/><path class="cls-1" d="M519.44,191.32l9.58-9.59,23-23L579.77,131l24-24c3.89-3.89,7.88-7.7,11.68-11.69a1.37,1.37,0,0,0,.17-.17,4.56,4.56,0,0,0,0-6.36h0a4.56,4.56,0,0,0-6.36,0l-9.62,9.62L576.7,121.32l-27.78,27.79-24,24C521,177,517,180.81,513.24,184.79l-.17.17a4.56,4.56,0,0,0,0,6.36h0a4.5,4.5,0,1,0,6.37-6.36h0v6.36l9.62-9.62L552,158.79,579.76,131l24-24c3.87-3.87,7.94-7.63,11.65-11.66l.17-.17h-6.36V88.79l-9.59,9.59-23,23L548.9,149.13l-24,24C521,177,517,180.8,513.24,184.79l-.17.17a4.5,4.5,0,0,0,6.37,6.36Z"/></g></g></svg>