<svg xmlns="http://www.w3.org/2000/svg" viewBox="0 0 617.24 351"><defs><style>.cls-1{fill:#fff;}</style></defs><g id="Layer_2" data-name="Layer 2"><g id="Layer_1-2" data-name="Layer 1"><path class="cls-1" d="M308.62,2A354.69,354.69,0,0,1,487.35,50,361.88,361.88,0,0,1,614.9,175.5,361.88,361.88,0,0,1,487.35,301a355,355,0,0,1-84.69,35.48,356.94,356.94,0,0,1-94,12.56,357,357,0,0,1-94.05-12.56A354.73,354.73,0,0,1,129.89,301,362,362,0,0,1,2.33,175.5,362,362,0,0,1,129.89,50,354.61,354.61,0,0,1,308.62,2m0-2C177.71,0,63.11,70.32,0,175.5,63.11,280.68,177.71,351,308.62,351s245.51-70.32,308.62-175.5C554.13,70.32,439.53,0,308.62,0Z"/></g></g></svg>